<svg xmlns="http://www.w3.org/2000/svg" xmlns:xlink="http://www.w3.org/1999/xlink" width="500" zoomAndPan="magnify" viewBox="0 0 375 374.999991" height="500" preserveAspectRatio="xMidYMid meet" version="1.0"><defs><clipPath id="89762a5018"><path d="M 198 44.480469 L 339.835938 44.480469 L 339.835938 324.980469 L 198 324.980469 Z M 198 44.480469 " clip-rule="nonzero"/></clipPath><clipPath id="afd9052a37"><path d="M 40.617188 44.480469 L 183 44.480469 L 183 324.980469 L 40.617188 324.980469 Z M 40.617188 44.480469 " clip-rule="nonzero"/></clipPath></defs><g clip-path="url(#89762a5018)"><path fill="#ffffff" d="M 256.992188 59.636719 C 251.511719 50.617188 240.574219 44.570312 229.277344 44.570312 C 212.09375 44.570312 198.015625 58.636719 198.015625 75.808594 C 198.015625 148.4375 198.015625 221.070312 198.015625 293.664062 C 198.015625 310.835938 212.09375 324.902344 229.277344 324.902344 C 245.554688 324.902344 259.035156 312.277344 260.433594 296.339844 C 263.410156 297.105469 265.382812 297.175781 265.414062 297.175781 C 267.621094 297.613281 269.925781 297.84375 272.265625 297.84375 C 292.160156 297.84375 308.273438 281.746094 308.273438 261.863281 C 308.273438 258.355469 307.769531 254.980469 306.835938 251.8125 C 326.328125 243.15625 339.832031 226.722656 339.832031 204.101562 C 339.832031 191.738281 335.382812 180.417969 328.027344 171.664062 C 331.402344 165.246094 333.640625 157.996094 333.640625 150.71875 C 333.640625 129.535156 316.460938 112.363281 295.261719 112.363281 C 294.457031 112.363281 293.65625 112.398438 292.882812 112.429688 C 294.691406 107.984375 295.691406 103.109375 295.691406 97.996094 C 295.710938 76.144531 278.554688 58.9375 256.992188 59.636719 Z M 235.09375 180.375 C 242.980469 180.375 249.402344 186.792969 249.402344 194.675781 C 249.402344 202.59375 242.980469 208.976562 235.09375 208.976562 C 229.910156 208.976562 225.398438 206.273438 222.890625 202.160156 C 207.644531 209.542969 206.507812 235.566406 206.441406 240.945312 L 206.441406 293.664062 C 206.441406 306.160156 216.738281 316.453125 229.277344 316.453125 C 241.179688 316.453125 251.203125 307.132812 252.042969 295.269531 L 252.175781 293.199219 C 246.292969 290.125 239.671875 284.683594 235.1875 275.023438 L 235.152344 275.023438 C 227.230469 275.023438 220.84375 268.640625 220.84375 260.722656 C 220.84375 252.839844 227.230469 246.421875 235.152344 246.421875 C 243.042969 246.421875 249.425781 252.839844 249.425781 260.722656 C 249.425781 264.765625 247.757812 268.40625 245.082031 271.007812 C 258.757812 300.105469 299.808594 292.792969 299.808594 261.851562 C 299.808594 259.480469 299.511719 257.109375 298.90625 254.800781 C 292.519531 256.839844 287.472656 257.476562 278.480469 257.242188 C 276.007812 261.582031 271.355469 264.527344 266.003906 264.527344 C 258.117188 264.527344 251.695312 258.144531 251.695312 250.226562 C 251.695312 242.34375 258.082031 235.925781 266.003906 235.925781 C 272.925781 235.925781 278.675781 240.835938 280.015625 247.347656 C 295.328125 247.984375 309.972656 240.667969 310.742188 240.269531 C 323.378906 232.785156 331.375 219.121094 331.375 204.085938 C 331.375 195.066406 328.53125 186.375 323.214844 179.191406 C 318.535156 185.371094 311.480469 191.816406 301.316406 194.964844 C 299.84375 201.277344 294.164062 205.957031 287.40625 205.957031 C 279.519531 205.957031 273.097656 199.539062 273.097656 191.65625 C 273.097656 183.773438 279.519531 177.355469 287.40625 177.355469 C 292.523438 177.355469 296.972656 180.03125 299.511719 184.035156 C 316.125 177.488281 323.113281 161.621094 323.378906 161.015625 C 324.582031 157.746094 325.214844 154.234375 325.214844 150.695312 C 325.214844 134.15625 311.808594 120.796875 295.261719 120.796875 C 294.65625 120.796875 294.023438 120.796875 293.386719 120.832031 L 291.316406 120.960938 C 287.539062 129.113281 278.210938 140.640625 259.859375 149.359375 C 259.925781 149.964844 259.960938 150.5625 259.960938 151.164062 C 259.960938 159.085938 253.574219 165.464844 245.6875 165.464844 C 237.761719 165.464844 231.375 159.085938 231.375 151.164062 C 231.375 143.285156 237.761719 136.867188 245.6875 136.867188 C 249.230469 136.867188 252.472656 138.167969 254.945312 140.304688 C 270.691406 134.054688 287.277344 115.886719 287.277344 97.980469 C 287.277344 81.804688 274.4375 68.648438 258.355469 68.082031 C 258.1875 74.730469 255.316406 86.359375 248.660156 93.871094 C 249.761719 95.910156 250.398438 98.246094 250.398438 100.71875 C 250.398438 108.601562 243.976562 115.019531 236.085938 115.019531 C 228.199219 115.019531 221.777344 108.601562 221.777344 100.71875 C 221.777344 92.835938 228.199219 86.417969 236.085938 86.417969 C 237.421875 86.417969 238.726562 86.621094 239.964844 86.949219 C 247.152344 77.792969 252.234375 65.167969 243.3125 57.984375 C 239.433594 54.84375 234.453125 53.074219 229.269531 53.007812 C 216.730469 52.804688 206.4375 63.265625 206.4375 75.796875 L 206.4375 204.855469 C 209.8125 199.878906 214.464844 195.734375 220.847656 193.398438 C 221.488281 186.089844 227.605469 180.375 235.09375 180.375 Z M 235.09375 180.375 " fill-opacity="1" fill-rule="evenodd"/></g><g clip-path="url(#afd9052a37)"><path fill="#ffffff" d="M 127.609375 55.292969 C 133.359375 48.746094 141.789062 44.570312 151.113281 44.570312 C 168.332031 44.570312 182.371094 58.636719 182.371094 75.808594 L 182.371094 293.664062 C 182.371094 310.835938 168.332031 324.902344 151.113281 324.902344 C 136.671875 324.902344 124.429688 314.945312 120.886719 301.546875 C 123.628906 296.070312 127.308594 290.191406 132.019531 284.910156 C 132.253906 284.707031 132.457031 284.507812 132.625 284.273438 C 137.203125 279.328125 142.757812 274.957031 149.441406 272.050781 C 151.25 271.285156 152.082031 269.179688 151.316406 267.375 C 150.511719 265.566406 148.441406 264.734375 146.636719 265.535156 C 140.78125 268.042969 135.734375 271.519531 131.390625 275.523438 C 125.742188 252.308594 141.050781 235.136719 153.757812 220.867188 C 158.605469 215.453125 163.117188 210.410156 166.230469 205.363281 C 179.199219 184.347656 159.976562 158.523438 159.910156 158.457031 C 158.773438 156.855469 156.535156 156.519531 154.929688 157.691406 C 153.355469 158.863281 153.027344 161.0625 154.164062 162.667969 C 154.230469 162.734375 170.609375 184.75 160.179688 201.621094 C 157.4375 206.0625 153.09375 210.910156 148.441406 216.117188 C 133.796875 232.523438 116.015625 252.46875 125.675781 281.433594 C 121.359375 286.476562 117.917969 291.960938 115.214844 297.132812 C 112.9375 297.601562 110.570312 297.832031 108.15625 297.832031 C 88.261719 297.832031 72.152344 281.734375 72.152344 261.851562 C 72.152344 258.546875 72.589844 255.371094 73.421875 252.332031 C 78.5 248.855469 84.449219 245.382812 91.105469 242.578125 C 91.40625 242.476562 91.710938 242.375 91.972656 242.210938 C 99.394531 239.203125 107.617188 237.03125 116.445312 236.632812 C 118.421875 236.53125 119.925781 234.863281 119.859375 232.921875 C 119.757812 230.949219 118.121094 229.414062 116.148438 229.515625 C 108.59375 229.847656 101.40625 231.386719 94.785156 233.625 C 97.257812 224.136719 105.488281 205.960938 132.398438 202.554688 C 134.335938 202.320312 135.707031 200.550781 135.472656 198.574219 C 135.203125 196.636719 133.433594 195.269531 131.492188 195.5 C 95.019531 200.113281 88.132812 228.546875 86.863281 236.691406 C 79.171875 240.101562 72.386719 244.273438 66.800781 248.355469 C 51.148438 239.777344 40.585938 223.175781 40.585938 204.097656 C 40.585938 194.109375 43.460938 184.785156 48.476562 176.9375 C 52.316406 175.132812 57.398438 173.359375 63.316406 172.863281 C 62.582031 180.515625 62.917969 196.453125 75.417969 208.945312 C 76.789062 210.316406 79.0625 210.316406 80.464844 208.945312 C 81.835938 207.542969 81.835938 205.273438 80.464844 203.90625 C 69.53125 192.976562 69.761719 178.851562 70.433594 172.871094 C 73.640625 173.140625 77.015625 173.839844 80.496094 175.078125 C 82.332031 175.746094 84.371094 174.742188 85.042969 172.90625 C 85.679688 171.035156 84.707031 168.996094 82.871094 168.359375 C 77.492188 166.457031 72.375 165.65625 67.628906 165.585938 C 67.496094 165.585938 67.394531 165.585938 67.292969 165.585938 C 61.140625 165.550781 55.621094 166.722656 51.011719 168.324219 C 48.273438 163.042969 46.734375 157.070312 46.734375 150.71875 C 46.734375 130.574219 62.277344 114.066406 82.039062 112.5 C 89.160156 119.582031 100.292969 125.960938 116.945312 124.226562 C 118.882812 124.023438 120.320312 122.253906 120.121094 120.316406 C 119.917969 118.34375 118.144531 116.945312 116.207031 117.140625 C 101.066406 118.714844 91.332031 112.296875 85.480469 105.8125 C 84.976562 103.273438 84.679688 100.671875 84.679688 97.996094 C 84.679688 77.585938 100.628906 60.914062 120.75 59.707031 C 121.382812 66.320312 122.625 72.265625 124.226562 77.746094 C 118.074219 79.179688 107.042969 83.558594 99.519531 96.890625 C 98.550781 98.625 99.15625 100.800781 100.890625 101.734375 C 102.597656 102.703125 104.769531 102.097656 105.738281 100.402344 C 112.359375 88.671875 121.921875 85.402344 126.4375 84.496094 C 128.8125 90.945312 131.554688 96.757812 134.15625 102.238281 C 135.929688 105.945312 137.632812 109.550781 139.039062 112.929688 C 142.984375 122.554688 145.359375 131.40625 143.785156 139.457031 C 135.992188 139.355469 114.867188 140.488281 102.09375 154.121094 C 98.28125 153.386719 88.855469 150.179688 81.5 135.542969 C 80.632812 133.773438 78.488281 133.074219 76.753906 133.941406 C 74.984375 134.84375 74.28125 136.949219 75.148438 138.71875 C 82.207031 152.816406 91.5 158.164062 97.550781 160.167969 C 93.542969 166.914062 91.296875 175.800781 92.070312 187.558594 C 92.203125 189.53125 93.90625 191.035156 95.882812 190.902344 C 97.855469 190.769531 99.324219 189.066406 99.191406 187.09375 C 96.785156 151.242188 128.644531 146.902344 141.285156 146.601562 C 137.707031 153.320312 130.617188 159.730469 118.554688 166.046875 C 116.816406 166.949219 116.148438 169.085938 117.050781 170.824219 C 117.953125 172.558594 120.089844 173.265625 121.863281 172.324219 C 138.375 163.707031 146.738281 154.457031 149.914062 144.394531 C 149.949219 144.265625 150.015625 144.097656 150.046875 143.929688 C 150.113281 143.726562 150.148438 143.527344 150.214844 143.324219 C 153.121094 132.835938 150.449219 121.945312 145.636719 110.214844 C 144.132812 106.507812 142.390625 102.929688 140.621094 99.191406 C 134.964844 87.296875 128.613281 73.898438 127.609375 55.292969 Z M 127.609375 55.292969 " fill-opacity="1" fill-rule="evenodd"/></g></svg>